<svg width="517" height="465" viewBox="0 0 517 465" fill="none" xmlns="http://www.w3.org/2000/svg">
<path d="M428.657 83C387.147 35.7921 326.303 6 258.5 6C190.697 6 129.853 35.7921 88.3433 83M482.896 201.5C484.283 211.635 485 221.984 485 232.5C485 357.592 383.592 459 258.5 459C133.408 459 32 357.592 32 232.5C32 221.984 32.7167 211.635 34.1038 201.5" stroke="#B895FD" stroke-width="11" stroke-linecap="square"/>
<path d="M299.884 161.664C398.096 120.671 442.572 96.9897 517 51C510.871 73.227 511.505 85.2309 448.926 113.809C382.776 139.752 353.569 148.206 299.884 161.664Z" fill="black"/>
<path d="M319.676 205.63C410.553 180.024 444.975 166.285 486.712 142.223C473.991 190.602 399.717 195.489 318.477 210.415L319.676 205.63Z" fill="black"/>
<path d="M313.379 227.464L314.878 222.08C394.177 213.493 430.146 204.743 467.819 189.18C446.601 224.897 399.066 227.312 313.379 227.464Z" fill="black"/>
<path d="M308.881 242.418L310.08 238.231C368.232 243.847 399.18 243.429 440.829 229.258C416.2 262.219 370.356 255.716 308.881 242.418Z" fill="black"/>
<path d="M304.682 257.672L306.182 252.288C324.736 261.321 348.863 269.461 403.944 266.046C379.6 285.8 341.703 280.877 304.682 257.672Z" fill="black"/>
<path d="M300.184 272.327L301.683 267.542C324.645 286.63 336.722 291.538 360.461 292.067C344.28 307.603 316.282 301.262 300.184 272.327Z" fill="black"/>
<path d="M294.486 292.067L296.285 285.786C300.065 293.035 308.441 300.775 327.173 311.209C309.98 314.493 299.538 305.795 294.486 292.067Z" fill="black"/>
<path d="M217.116 161.664C118.904 120.671 74.4278 96.9897 0 51C6.12855 73.227 5.49536 85.2309 68.0737 113.809C134.224 139.752 163.431 148.206 217.116 161.664Z" fill="black"/>
<path d="M197.324 205.63C106.447 180.024 72.0251 166.285 30.2883 142.223C43.0091 190.602 117.283 195.489 198.523 210.415L197.324 205.63Z" fill="black"/>
<path d="M203.621 227.464L202.122 222.08C122.824 213.493 86.8539 204.743 49.181 189.18C70.3991 224.897 117.934 227.312 203.621 227.464Z" fill="black"/>
<path d="M208.12 242.418L206.92 238.231C148.768 243.847 117.82 243.429 76.1705 229.258C100.8 262.219 146.644 255.716 208.12 242.418Z" fill="black"/>
<path d="M212.318 257.672L210.818 252.288C192.264 261.321 168.137 269.461 113.056 266.046C137.4 285.8 175.297 280.877 212.318 257.672Z" fill="black"/>
<path d="M216.816 272.327L215.317 267.542C192.355 286.63 180.278 291.538 156.539 292.067C172.72 307.603 200.718 301.262 216.816 272.327Z" fill="black"/>
<path d="M222.514 292.067L220.715 285.786C216.935 293.035 208.559 300.775 189.827 311.209C207.02 314.493 217.462 305.795 222.514 292.067Z" fill="black"/>
<path d="M226.712 306.723C223.155 310.891 220.504 312.856 215.617 315.695C218.245 316.704 219.526 317.352 220.715 318.985C233.735 346.92 237.738 357.217 248.304 380C240.239 354.95 236.146 341.114 228.812 313.901L226.712 306.723Z" fill="#B3378B"/>
<path d="M258.5 358.166C259.7 358.166 282.295 250.552 296.885 176.319C424.577 142.845 468.057 123.092 503.505 97.9573C500.965 133.792 444.95 156.324 310.08 193.367C290.83 265.877 279.287 303.707 258.5 370.429C237.713 303.707 226.17 265.877 206.92 193.367C72.0496 156.324 16.0355 133.792 13.4948 97.9573C48.9426 123.092 92.4226 142.845 220.115 176.319C234.705 250.552 257.3 358.166 258.5 358.166Z" fill="black"/>
<path d="M282.191 191.573C274.315 211.572 261.199 239.427 258.5 239.427C255.801 239.427 242.685 211.572 234.809 191.573L258.5 304.629L282.191 191.573Z" fill="#B3378B"/>
<path d="M290.288 306.723C293.845 310.891 296.496 312.856 301.383 315.695C298.756 316.704 297.474 317.352 296.285 318.985C283.265 346.92 279.262 357.217 268.696 380C276.761 354.95 280.854 341.114 288.189 313.901L290.288 306.723Z" fill="#B3378B"/>
</svg>
